<svg width="250" height="249" viewBox="0 0 250 249" fill="none" xmlns="http://www.w3.org/2000/svg">
<circle cx="12.5" cy="11.5" r="12" transform="rotate(-90 12.5 11.5)" stroke="white"/>
<circle cx="12.5" cy="36.5" r="12" transform="rotate(90 12.5 36.5)" stroke="white"/>
<circle cx="12.5" cy="61.5" r="12" transform="rotate(-90 12.5 61.5)" stroke="white"/>
<circle cx="12.5" cy="86.5" r="12" stroke="white"/>
<circle cx="12.5" cy="111.5" r="12" transform="rotate(-90 12.5 111.5)" stroke="white"/>
<circle cx="12.5" cy="136.5" r="12" stroke="white"/>
<circle cx="12.5" cy="161.5" r="12" transform="rotate(-90 12.5 161.5)" stroke="white"/>
<circle cx="12.5" cy="186.5" r="12" transform="rotate(180 12.5 186.5)" stroke="white"/>
<circle cx="12.5" cy="211.5" r="12" transform="rotate(-90 12.5 211.5)" stroke="white"/>
<circle cx="12.5" cy="236.5" r="12" stroke="white"/>
<circle cx="37.5" cy="11.5" r="12" transform="rotate(-90 37.5 11.5)" stroke="white"/>
<circle cx="37.5" cy="36.5" r="12" stroke="white"/>
<circle cx="37.5" cy="61.5" r="12" transform="rotate(-90 37.5 61.5)" stroke="white"/>
<circle cx="37.5" cy="86.5" r="12" transform="rotate(180 37.5 86.5)" stroke="white"/>
<circle cx="37.5" cy="111.5" r="12" transform="rotate(180 37.5 111.5)" stroke="white"/>
<circle cx="37.5" cy="136.5" r="12" transform="rotate(180 37.5 136.5)" stroke="white"/>
<circle cx="37.5" cy="161.5" r="12" transform="rotate(180 37.5 161.5)" stroke="white"/>
<circle cx="37.5" cy="186.5" r="12" transform="rotate(-90 37.5 186.5)" stroke="white"/>
<circle cx="37.5" cy="211.5" r="12" stroke="white"/>
<circle cx="37.5" cy="236.5" r="12" transform="rotate(90 37.5 236.5)" stroke="white"/>
<circle cx="62.5" cy="11.5" r="12" stroke="white"/>
<circle cx="62.5" cy="36.5" r="12" transform="rotate(-90 62.5 36.5)" stroke="white"/>
<circle cx="62.5" cy="61.5" r="12" stroke="white"/>
<circle cx="62.5" cy="86.5" r="12" transform="rotate(180 62.5 86.5)" stroke="white"/>
<circle cx="62.5" cy="111.5" r="12" transform="rotate(90 62.5 111.5)" stroke="white"/>
<circle cx="62.5" cy="136.5" r="12" stroke="white"/>
<circle cx="62.5" cy="161.5" r="12" stroke="white"/>
<circle cx="62.5" cy="186.5" r="12" stroke="white"/>
<circle cx="62.5" cy="211.5" r="12" stroke="white"/>
<circle cx="62.5" cy="236.5" r="12" transform="rotate(-90 62.5 236.5)" stroke="white"/>
<circle cx="87.5" cy="11.5" r="12" transform="rotate(-90 87.5 11.5)" stroke="white"/>
<circle cx="87.5" cy="36.5" r="12" transform="rotate(180 87.5 36.5)" stroke="white"/>
<circle cx="87.5" cy="61.5" r="12" transform="rotate(180 87.5 61.5)" stroke="white"/>
<circle cx="87.5" cy="86.5" r="12" transform="rotate(180 87.5 86.5)" stroke="white"/>
<circle cx="87.5" cy="111.5" r="12" transform="rotate(180 87.5 111.5)" stroke="white"/>
<circle cx="87.5" cy="136.5" r="12" stroke="white"/>
<circle cx="87.5" cy="161.5" r="12" stroke="white"/>
<circle cx="87.5" cy="186.5" r="12" transform="rotate(180 87.5 186.5)" stroke="white"/>
<circle cx="87.5" cy="211.5" r="12" transform="rotate(90 87.5 211.5)" stroke="white"/>
<circle cx="87.5" cy="236.5" r="12" transform="rotate(180 87.5 236.5)" stroke="white"/>
<circle cx="112.5" cy="11.5" r="12" transform="rotate(180 112.5 11.5)" stroke="white"/>
<circle cx="112.5" cy="36.5" r="12" transform="rotate(90 112.5 36.5)" stroke="white"/>
<circle cx="112.5" cy="61.5" r="12" transform="rotate(180 112.5 61.5)" stroke="white"/>
<circle cx="112.5" cy="86.5" r="12" transform="rotate(90 112.5 86.5)" stroke="white"/>
<circle cx="112.5" cy="111.5" r="12" transform="rotate(90 112.5 111.5)" stroke="white"/>
<circle cx="112.5" cy="136.5" r="12" transform="rotate(90 112.5 136.5)" stroke="white"/>
<circle cx="112.5" cy="161.5" r="12" transform="rotate(-90 112.5 161.5)" stroke="white"/>
<circle cx="112.5" cy="186.5" r="12" transform="rotate(-90 112.5 186.5)" stroke="white"/>
<circle cx="112.5" cy="211.5" r="12" transform="rotate(180 112.5 211.5)" stroke="white"/>
<circle cx="112.5" cy="236.5" r="12" transform="rotate(90 112.5 236.5)" stroke="white"/>
<circle cx="137.5" cy="11.5" r="12" transform="rotate(90 137.5 11.5)" stroke="white"/>
<circle cx="137.5" cy="36.5" r="12" transform="rotate(180 137.5 36.5)" stroke="white"/>
<circle cx="137.5" cy="61.5" r="12" transform="rotate(90 137.5 61.5)" stroke="white"/>
<circle cx="137.5" cy="86.5" r="12" transform="rotate(-90 137.5 86.5)" stroke="white"/>
<circle cx="137.5" cy="111.5" r="12" transform="rotate(-90 137.5 111.5)" stroke="white"/>
<circle cx="137.5" cy="136.5" r="12" transform="matrix(0 -1 1 0 1 274)" stroke="white"/>
<circle cx="137.5" cy="161.5" r="12" transform="rotate(90 137.5 161.5)" stroke="white"/>
<circle cx="137.5" cy="186.5" r="12" transform="rotate(180 137.5 186.5)" stroke="white"/>
<circle cx="137.5" cy="211.5" r="12" transform="rotate(90 137.5 211.5)" stroke="white"/>
<circle cx="137.5" cy="236.5" r="12" transform="rotate(-90 137.5 236.5)" stroke="white"/>
<circle cx="162.5" cy="11.5" r="12" transform="rotate(-90 162.5 11.5)" stroke="white"/>
<circle cx="162.5" cy="36.5" r="12" transform="rotate(180 162.5 36.5)" stroke="white"/>
<circle cx="162.5" cy="61.5" r="12" transform="rotate(180 162.5 61.5)" stroke="white"/>
<circle cx="162.5" cy="86.5" r="12" stroke="white"/>
<circle cx="162.5" cy="111.5" r="12" transform="rotate(90 162.5 111.5)" stroke="white"/>
<circle cx="162.5" cy="136.5" r="12" stroke="white"/>
<circle cx="162.5" cy="161.5" r="12" transform="rotate(180 162.5 161.5)" stroke="white"/>
<circle cx="162.5" cy="186.5" r="12" transform="rotate(-90 162.5 186.5)" stroke="white"/>
<circle cx="162.5" cy="211.5" r="12" transform="rotate(180 162.5 211.5)" stroke="white"/>
<circle cx="162.5" cy="236.5" r="12" transform="rotate(180 162.5 236.5)" stroke="white"/>
<circle cx="187.5" cy="11.5" r="12" transform="rotate(-90 187.5 11.5)" stroke="white"/>
<circle cx="187.5" cy="36.5" r="12" stroke="white"/>
<circle cx="187.5" cy="61.5" r="12" transform="rotate(180 187.5 61.5)" stroke="white"/>
<circle cx="187.5" cy="86.5" r="12" transform="rotate(90 187.5 86.5)" stroke="white"/>
<circle cx="187.5" cy="111.5" r="12" transform="rotate(-90 187.5 111.5)" stroke="white"/>
<circle cx="187.5" cy="136.5" r="12" stroke="white"/>
<circle cx="187.5" cy="161.5" r="12" stroke="white"/>
<circle cx="187.5" cy="186.5" r="12" stroke="white"/>
<circle cx="187.5" cy="211.5" r="12" stroke="white"/>
<circle cx="187.5" cy="236.5" r="12" transform="rotate(90 187.5 236.5)" stroke="white"/>
<circle cx="212.5" cy="11.5" r="12" transform="rotate(90 212.5 11.5)" stroke="white"/>
<circle cx="212.5" cy="36.5" r="12" transform="rotate(90 212.5 36.5)" stroke="white"/>
<circle cx="212.5" cy="61.5" r="12" transform="rotate(90 212.5 61.5)" stroke="white"/>
<circle cx="212.5" cy="86.5" r="12" transform="rotate(90 212.5 86.5)" stroke="white"/>
<circle cx="212.5" cy="111.5" r="12" transform="rotate(180 212.5 111.5)" stroke="white"/>
<circle cx="212.5" cy="136.5" r="12" stroke="white"/>
<circle cx="212.5" cy="161.5" r="12" transform="rotate(180 212.5 161.5)" stroke="white"/>
<circle cx="212.5" cy="186.5" r="12" stroke="white"/>
<circle cx="212.5" cy="211.5" r="12" stroke="white"/>
<circle cx="212.5" cy="236.5" r="12" transform="rotate(90 212.5 236.5)" stroke="white"/>
<circle cx="237.5" cy="11.5" r="12" transform="rotate(-90 237.5 11.5)" stroke="white"/>
<circle cx="237.5" cy="36.5" r="12" transform="rotate(180 237.5 36.5)" stroke="white"/>
<circle cx="237.5" cy="61.5" r="12" transform="rotate(180 237.5 61.5)" stroke="white"/>
<circle cx="237.5" cy="86.5" r="12" transform="rotate(180 237.5 86.5)" stroke="white"/>
<circle cx="237.5" cy="111.5" r="12" transform="rotate(-90 237.5 111.5)" stroke="white"/>
<circle cx="237.5" cy="136.5" r="12" transform="rotate(90 237.5 136.5)" stroke="white"/>
<circle cx="237.5" cy="161.5" r="12" stroke="white"/>
<circle cx="237.5" cy="186.5" r="12" transform="rotate(180 237.5 186.5)" stroke="white"/>
<circle cx="237.5" cy="211.5" r="12" stroke="white"/>
<circle cx="237.5" cy="236.5" r="12" transform="rotate(90 237.5 236.5)" stroke="white"/>
</svg>
