<?xml version="1.0" encoding="UTF-8" ?>
<!DOCTYPE svg PUBLIC "-//W3C//DTD SVG 1.1//EN" "http://www.w3.org/Graphics/SVG/1.1/DTD/svg11.dtd">
<svg width="341pt" height="341pt" viewBox="0 0 341 341" version="1.1" xmlns="http://www.w3.org/2000/svg">
<g id="#f7f7f7ff">
<path fill="#f7f7f7" opacity="1.00" d=" M 118.31 72.35 C 120.65 68.83 122.60 64.29 127.05 63.05 C 130.43 61.80 133.83 63.86 136.38 65.94 C 133.98 66.03 131.40 65.90 129.22 67.06 C 128.01 68.12 127.27 69.59 126.32 70.86 C 128.64 70.94 130.97 70.98 133.29 70.85 C 126.94 73.42 121.28 78.45 119.36 85.19 C 117.37 91.16 119.57 97.57 118.24 103.58 L 117.78 104.27 C 117.40 98.36 117.43 92.37 115.89 86.61 C 108.04 96.20 102.34 107.32 95.76 117.78 C 93.18 122.00 90.20 126.04 88.47 130.71 C 87.00 134.62 86.72 138.85 86.66 142.99 C 86.76 162.66 86.59 182.33 86.66 202.00 C 86.75 207.27 86.17 212.59 87.02 217.82 C 87.18 219.36 88.51 220.49 90.06 220.33 C 94.40 220.66 98.53 219.02 102.62 217.84 C 105.08 218.95 107.21 220.67 109.38 222.26 C 100.37 222.75 91.33 222.16 82.31 222.51 C 82.41 194.32 82.28 166.13 82.36 137.94 C 82.25 133.58 83.26 129.24 85.30 125.39 C 95.60 107.28 107.78 90.32 118.31 72.35 Z" />
<path fill="#f7f7f7" opacity="1.00" d=" M 124.65 86.41 C 126.48 79.80 133.21 75.34 139.92 75.31 C 172.30 75.53 204.69 75.56 237.07 75.33 C 243.64 75.19 249.50 80.03 251.51 86.14 L 251.33 87.05 C 246.21 84.48 241.96 79.24 235.79 79.54 C 230.20 79.75 224.07 78.85 219.15 82.13 C 211.88 79.96 203.93 80.20 196.73 82.51 C 196.25 81.88 195.30 80.60 194.82 79.97 C 179.22 79.71 163.61 79.95 148.00 79.71 C 143.91 79.78 139.48 78.71 135.64 80.56 C 131.25 83.21 127.35 87.85 127.61 93.25 C 127.80 103.50 127.98 113.75 128.00 124.00 C 128.02 130.21 126.88 136.80 129.82 142.58 C 128.05 144.53 126.06 146.26 123.91 147.79 C 123.77 132.19 123.82 116.59 123.89 101.00 C 123.94 96.14 123.42 91.17 124.65 86.41 Z" />
<path fill="#f7f7f7" opacity="1.00" d=" M 186.58 103.58 C 191.48 96.24 200.00 90.95 209.00 91.31 C 216.02 91.14 223.15 93.84 227.96 99.02 C 231.49 103.39 233.68 109.34 231.92 114.91 C 230.89 120.38 227.24 125.22 222.11 127.46 C 223.29 117.88 225.83 108.49 226.49 98.82 C 222.09 98.63 216.96 97.16 213.26 100.32 C 211.34 98.94 209.37 97.25 206.89 97.15 C 200.90 96.57 195.29 100.20 191.77 104.79 C 187.36 110.48 186.28 118.01 186.76 125.01 C 187.34 131.64 192.30 138.02 198.99 139.28 C 203.36 140.10 207.62 138.36 211.29 136.15 C 213.92 137.70 216.76 139.45 219.95 139.11 C 227.42 138.06 233.82 132.73 237.16 126.09 C 240.64 119.65 240.48 112.10 239.45 105.06 C 242.88 113.68 241.44 123.70 237.22 131.79 C 238.75 132.68 240.30 133.54 241.70 134.63 C 242.19 135.86 241.75 137.14 241.33 138.31 C 239.95 136.72 238.44 135.27 236.92 133.83 C 232.54 137.25 228.19 140.95 222.83 142.73 C 213.25 146.47 201.63 147.12 192.73 141.27 C 186.96 137.76 183.13 131.49 182.46 124.79 C 181.80 117.56 182.52 109.81 186.58 103.58 Z" />
<path fill="#f7f7f7" opacity="1.00" d=" M 132.49 147.48 C 136.68 143.06 141.83 139.44 147.81 137.96 C 144.82 140.64 142.39 144.02 142.56 148.24 C 142.01 147.31 141.46 146.39 140.91 145.48 C 132.78 151.76 125.54 159.08 117.71 165.71 C 115.04 167.93 111.84 169.34 108.79 170.93 C 115.23 161.78 124.79 155.48 132.49 147.48 Z" />
<path fill="#f7f7f7" opacity="1.00" d=" M 180.09 170.36 C 183.16 166.73 191.19 168.96 190.43 174.27 C 188.16 175.26 185.86 176.19 183.48 176.90 C 181.78 175.20 178.28 173.20 180.09 170.36 Z" />
<path fill="#f7f7f7" opacity="1.00" d=" M 161.65 188.00 C 162.56 185.99 164.46 183.91 166.87 184.20 C 169.03 184.68 171.04 185.88 172.61 187.44 C 172.74 188.75 172.63 190.07 172.52 191.39 C 170.71 191.99 168.90 192.61 167.08 193.17 C 164.57 192.35 162.25 190.73 161.65 188.00 Z" />
</g>
<g id="#90bfcfff">
<path fill="#90bfcf" opacity="1.00" d=" M 151.45 47.60 C 160.96 47.23 170.48 46.72 180.00 47.33 C 190.30 46.98 200.52 49.30 210.10 52.95 C 219.54 56.82 229.39 60.18 237.59 66.46 C 238.88 67.54 239.95 68.85 241.03 70.13 C 213.36 69.59 185.68 70.02 158.00 69.85 C 153.57 69.68 148.94 70.73 144.63 69.51 C 142.68 66.47 141.38 62.86 138.44 60.58 C 134.33 57.37 128.34 55.92 123.56 58.51 C 119.53 60.45 117.48 64.65 115.28 68.30 C 106.18 83.99 95.74 98.85 86.36 114.37 C 82.86 120.05 79.01 125.76 77.62 132.39 C 76.79 136.87 76.78 141.46 76.73 146.00 C 76.73 171.24 76.74 196.48 76.72 221.72 C 73.92 222.25 71.14 222.91 68.51 224.00 C 64.34 220.65 62.46 215.48 60.17 210.84 C 53.26 195.88 51.20 179.29 50.56 162.99 C 50.99 152.50 52.15 141.87 55.95 132.00 C 60.59 117.03 67.65 102.72 77.47 90.46 C 87.02 77.30 100.35 67.38 114.51 59.64 C 126.41 54.52 138.31 48.59 151.45 47.60 Z" />
<path fill="#90bfcf" opacity="1.00" d=" M 257.01 83.95 C 262.49 87.88 266.06 93.79 269.55 99.42 C 273.02 105.74 277.26 111.70 279.69 118.54 C 284.03 129.70 288.13 141.14 289.49 153.11 C 292.01 184.16 282.17 216.18 262.01 240.02 C 251.41 253.01 237.72 263.40 222.53 270.45 C 212.52 274.40 202.58 278.99 191.86 280.66 C 184.00 282.10 175.97 281.73 168.01 281.78 C 162.30 281.61 156.57 281.99 150.89 281.27 C 152.55 281.30 154.23 281.31 155.89 281.10 C 156.90 279.60 156.39 277.63 156.48 275.93 C 155.91 267.27 156.19 258.59 155.89 249.92 C 155.64 247.22 155.74 244.19 154.05 241.90 C 152.49 239.92 149.76 240.03 147.50 239.70 C 147.45 237.13 147.48 234.57 147.60 232.01 C 152.75 230.35 157.40 226.63 159.44 221.54 C 160.50 217.67 159.95 213.61 159.98 209.66 C 163.93 212.56 167.56 216.05 172.12 217.99 C 178.11 220.43 185.68 216.20 186.76 209.85 C 187.26 206.24 186.79 202.59 186.46 198.99 C 190.53 200.45 195.11 202.12 199.35 200.32 C 202.70 198.81 205.83 195.83 206.19 192.00 C 206.57 187.65 205.95 183.29 205.71 178.94 C 220.47 179.26 235.23 179.21 250.00 179.31 C 255.87 179.27 262.68 178.56 266.57 173.57 C 269.46 170.47 270.10 166.11 269.99 162.03 C 269.81 145.67 269.89 129.30 269.97 112.94 C 269.88 110.46 269.97 107.69 268.28 105.66 C 265.26 101.77 261.46 98.58 258.07 95.03 C 258.04 91.32 257.90 87.57 257.01 83.95 Z" />
<path fill="#90bfcf" opacity="1.00" d=" M 190.66 90.66 C 197.25 86.78 205.08 84.27 212.77 85.59 C 217.88 86.61 222.86 88.62 227.03 91.79 C 222.28 89.41 217.47 86.67 212.03 86.43 C 199.47 85.43 186.46 92.64 181.05 104.10 C 178.44 109.33 177.53 115.27 177.64 121.07 C 177.96 126.77 180.78 131.85 182.86 137.05 C 177.18 129.17 175.14 118.81 177.39 109.37 C 179.68 101.99 183.82 94.68 190.66 90.66 Z" />
<path fill="#90bfcf" opacity="1.00" d=" M 197.04 106.99 C 199.48 104.17 203.08 102.02 206.93 102.34 C 210.71 102.31 213.42 105.28 216.10 107.52 C 217.41 105.48 218.27 102.57 221.13 102.36 C 220.04 110.62 217.67 118.68 216.92 126.98 C 216.58 130.87 221.73 132.48 224.62 130.68 C 230.81 128.06 233.68 121.73 235.94 115.85 C 236.21 122.15 232.07 127.72 226.99 131.01 C 224.13 132.74 220.54 134.55 217.21 133.00 C 215.49 131.90 214.24 130.26 212.86 128.80 C 209.24 131.18 205.59 134.42 201.01 134.39 C 195.99 133.85 192.12 128.98 192.13 124.01 C 191.94 118.07 192.93 111.57 197.04 106.99 M 204.27 105.01 C 198.30 107.80 194.79 114.53 194.76 120.99 C 194.37 124.74 195.35 129.18 198.95 131.09 C 203.11 133.13 207.91 130.97 211.01 127.98 C 215.08 124.57 215.13 118.81 216.04 113.99 C 217.99 107.64 209.66 102.73 204.27 105.01 Z" />
<path fill="#90bfcf" opacity="1.00" d=" M 222.45 146.49 C 227.14 145.34 230.90 142.22 235.03 139.91 C 226.39 149.53 211.87 151.33 199.84 148.41 C 207.41 148.48 215.17 149.00 222.45 146.49 Z" />
<path fill="#90bfcf" opacity="1.00" d=" M 82.84 242.17 C 102.32 242.29 121.86 241.76 141.31 243.07 C 137.35 243.81 133.34 244.14 129.31 244.17 C 129.28 254.08 129.14 263.99 129.29 273.90 C 119.05 271.18 110.03 265.33 101.09 259.85 C 94.53 255.97 89.01 250.62 84.06 244.87 C 84.56 244.34 85.08 243.81 85.60 243.29 C 84.68 242.92 83.76 242.54 82.84 242.17 Z" />
</g>
<g id="#1a2c3cff">
<path fill="#1a2c3c" opacity="1.00" d=" M 123.56 58.51 C 128.34 55.92 134.33 57.37 138.44 60.58 C 141.38 62.86 142.68 66.47 144.63 69.51 C 148.94 70.73 153.57 69.68 158.00 69.85 C 185.68 70.02 213.36 69.59 241.03 70.13 C 248.55 70.96 253.31 78.05 257.01 83.95 C 257.90 87.57 258.04 91.32 258.07 95.03 C 257.90 111.36 258.34 127.69 258.29 144.02 C 258.24 149.64 256.81 155.61 252.65 159.65 C 248.11 164.39 241.44 166.38 235.01 166.35 C 221.82 166.47 208.62 166.54 195.43 166.33 C 196.10 171.80 196.46 178.04 192.35 182.35 C 189.17 186.82 183.41 187.34 178.38 187.47 C 177.75 192.71 176.64 198.78 171.57 201.57 C 166.31 205.39 159.53 203.73 154.14 201.13 C 153.04 204.81 152.02 208.61 149.82 211.83 C 146.79 216.27 142.44 219.56 138.02 222.52 C 141.02 222.82 144.34 222.45 146.99 224.14 C 147.78 226.68 147.63 229.38 147.60 232.01 C 147.48 234.57 147.45 237.13 147.50 239.70 C 147.71 249.79 147.52 259.89 147.70 269.99 C 147.77 273.27 147.51 276.55 146.86 279.77 C 146.36 279.38 145.37 278.60 144.87 278.21 C 143.59 277.04 141.53 276.10 141.80 274.04 C 141.55 263.72 141.65 253.38 142.19 243.07 L 141.31 243.07 C 121.86 241.76 102.32 242.29 82.84 242.17 C 79.21 243.06 76.73 239.93 74.79 237.39 C 90.92 237.06 107.06 237.43 123.19 237.22 C 128.85 237.18 134.52 237.39 140.18 237.00 C 140.50 236.98 141.14 236.93 141.46 236.90 C 141.44 233.89 141.50 230.88 141.57 227.86 C 119.19 227.25 96.81 227.77 74.42 227.73 C 74.40 230.48 74.49 233.23 74.71 235.97 C 74.75 232.27 72.59 229.37 69.42 227.68 C 69.12 226.45 68.82 225.22 68.51 224.00 C 71.14 222.91 73.92 222.25 76.72 221.72 C 76.74 196.48 76.73 171.24 76.73 146.00 C 76.78 141.46 76.79 136.87 77.62 132.39 C 79.01 125.76 82.86 120.05 86.36 114.37 C 95.74 98.85 106.18 83.99 115.28 68.30 C 117.48 64.65 119.53 60.45 123.56 58.51 M 118.31 72.35 C 107.78 90.32 95.60 107.28 85.30 125.39 C 83.26 129.24 82.25 133.58 82.36 137.94 C 82.28 166.13 82.41 194.32 82.31 222.51 C 91.33 222.16 100.37 222.75 109.38 222.26 C 107.21 220.67 105.08 218.95 102.62 217.84 C 101.41 216.60 100.21 215.37 98.99 214.14 C 100.98 214.41 102.96 214.76 104.98 214.75 C 104.60 215.35 103.84 216.56 103.46 217.17 C 115.56 222.56 129.75 214.07 134.50 202.57 C 137.42 196.31 135.79 189.28 136.71 182.70 C 142.12 177.13 148.17 172.18 153.38 166.38 C 156.95 162.16 162.66 159.71 164.97 154.51 C 166.59 148.02 163.29 139.22 155.93 138.23 C 153.23 137.56 151.50 140.21 149.86 141.87 C 147.63 144.26 147.57 148.13 149.18 150.86 C 151.07 153.31 154.61 154.51 157.56 153.45 C 160.60 152.72 162.68 150.25 164.88 148.23 C 164.87 149.88 164.88 151.53 164.94 153.19 C 162.43 155.50 159.57 157.39 156.51 158.90 C 153.42 158.74 150.13 158.40 147.67 156.31 C 144.89 154.42 144.05 151.04 142.56 148.24 C 142.39 144.02 144.82 140.64 147.81 137.96 C 141.83 139.44 136.68 143.06 132.49 147.48 C 124.79 155.48 115.23 161.78 108.79 170.93 C 107.43 171.91 106.18 173.03 104.88 174.08 C 103.99 173.17 102.84 172.35 102.60 171.01 C 104.24 166.58 108.23 163.76 111.39 160.48 C 108.38 158.10 103.24 156.48 103.57 151.82 C 107.53 152.12 111.15 153.92 114.05 156.58 C 115.58 155.25 117.11 153.93 118.67 152.64 C 118.46 149.44 118.67 146.17 117.99 143.03 C 115.92 139.85 113.19 137.11 110.32 134.64 C 107.86 132.23 103.53 135.31 101.29 132.55 C 100.45 130.58 102.22 129.13 103.24 127.70 C 104.85 127.80 107.28 129.47 108.41 127.56 C 111.49 123.20 113.87 118.38 117.17 114.17 C 119.61 111.19 118.54 107.06 118.24 103.58 C 119.57 97.57 117.37 91.16 119.36 85.19 C 121.28 78.45 126.94 73.42 133.29 70.85 C 135.00 70.68 136.67 70.29 138.37 70.02 C 137.86 68.59 137.16 67.24 136.38 65.94 C 133.83 63.86 130.43 61.80 127.05 63.05 C 122.60 64.29 120.65 68.83 118.31 72.35 M 124.65 86.41 C 123.42 91.17 123.94 96.14 123.89 101.00 C 123.82 116.59 123.77 132.19 123.91 147.79 C 126.06 146.26 128.05 144.53 129.82 142.58 C 133.80 139.20 137.95 135.87 142.85 133.93 C 149.88 130.93 158.58 131.50 164.70 136.27 C 168.46 139.23 170.08 143.89 172.70 147.74 C 171.08 152.09 170.22 156.72 167.89 160.79 C 190.94 160.91 214.00 160.70 237.06 160.84 C 243.71 161.03 249.96 156.07 251.93 149.82 C 252.92 145.63 252.41 141.28 252.45 137.01 C 252.39 124.01 252.30 111.00 252.47 98.00 C 252.49 94.03 252.68 89.98 251.51 86.14 C 249.50 80.03 243.64 75.19 237.07 75.33 C 204.69 75.56 172.30 75.53 139.92 75.31 C 133.21 75.34 126.48 79.80 124.65 86.41 M 114.72 127.81 C 112.66 130.63 116.95 132.40 118.51 134.22 C 118.62 130.45 118.55 126.67 118.40 122.89 C 117.11 124.49 115.84 126.09 114.72 127.81 M 169.10 166.53 C 170.06 170.84 171.20 175.38 174.38 178.64 C 177.07 181.75 182.07 182.93 185.66 180.70 C 188.04 179.26 189.11 176.57 190.43 174.27 C 191.19 168.96 183.16 166.73 180.09 170.36 C 178.28 173.20 181.78 175.20 183.48 176.90 C 180.21 178.61 176.01 176.66 175.45 172.95 C 174.90 169.89 177.92 168.12 179.79 166.28 C 176.24 166.58 172.66 166.61 169.10 166.53 M 152.56 175.51 C 151.08 179.91 151.96 184.74 152.79 189.19 C 154.10 195.00 160.18 198.82 165.95 198.15 C 169.34 197.44 171.18 194.28 172.52 191.39 C 172.63 190.07 172.74 188.75 172.61 187.44 C 171.04 185.88 169.03 184.68 166.87 184.20 C 164.46 183.91 162.56 185.99 161.65 188.00 C 162.25 190.73 164.57 192.35 167.08 193.17 C 164.44 193.91 160.93 194.44 158.97 192.04 C 155.83 188.65 158.64 182.40 163.04 181.88 C 165.34 181.80 167.58 182.41 169.82 182.87 C 166.15 178.30 164.13 172.77 162.09 167.34 C 158.80 169.92 155.30 172.33 152.56 175.51 M 142.25 184.12 C 142.15 191.69 142.46 199.80 138.55 206.58 C 134.87 213.51 128.54 218.38 121.63 221.80 C 125.11 221.66 129.04 222.26 131.99 219.96 C 138.12 215.62 145.34 211.24 147.24 203.40 C 149.83 196.20 146.07 189.00 146.28 181.70 C 144.93 182.50 143.59 183.32 142.25 184.12 Z" />
<path fill="#1a2c3c" opacity="1.00" d=" M 196.73 82.51 C 203.93 80.20 211.88 79.96 219.15 82.13 C 229.22 85.85 236.89 94.67 239.45 105.06 C 240.48 112.10 240.64 119.65 237.16 126.09 C 233.82 132.73 227.42 138.06 219.95 139.11 C 216.76 139.45 213.92 137.70 211.29 136.15 C 207.62 138.36 203.36 140.10 198.99 139.28 C 192.30 138.02 187.34 131.64 186.76 125.01 C 186.28 118.01 187.36 110.48 191.77 104.79 C 195.29 100.20 200.90 96.57 206.89 97.15 C 209.37 97.25 211.34 98.94 213.26 100.32 C 216.96 97.16 222.09 98.63 226.49 98.82 C 225.83 108.49 223.29 117.88 222.11 127.46 C 227.24 125.22 230.89 120.38 231.92 114.91 C 233.68 109.34 231.49 103.39 227.96 99.02 C 223.15 93.84 216.02 91.14 209.00 91.31 C 200.00 90.95 191.48 96.24 186.58 103.58 C 182.52 109.81 181.80 117.56 182.46 124.79 C 183.13 131.49 186.96 137.76 192.73 141.27 C 201.63 147.12 213.25 146.47 222.83 142.73 C 228.19 140.95 232.54 137.25 236.92 133.83 C 238.44 135.27 239.95 136.72 241.33 138.31 C 238.01 142.27 234.84 146.62 230.19 149.13 C 217.52 156.35 200.53 157.13 188.21 148.76 C 179.11 142.86 173.11 132.72 171.81 122.00 C 169.46 105.19 180.28 87.38 196.73 82.51 M 190.66 90.66 C 183.82 94.68 179.68 101.99 177.39 109.37 C 175.14 118.81 177.18 129.17 182.86 137.05 C 180.78 131.85 177.96 126.77 177.64 121.07 C 177.53 115.27 178.44 109.33 181.05 104.10 C 186.46 92.64 199.47 85.43 212.03 86.43 C 217.47 86.67 222.28 89.41 227.03 91.79 C 222.86 88.62 217.88 86.61 212.77 85.59 C 205.08 84.27 197.25 86.78 190.66 90.66 M 197.04 106.99 C 192.93 111.57 191.94 118.07 192.13 124.01 C 192.12 128.98 195.99 133.85 201.01 134.39 C 205.59 134.42 209.24 131.18 212.86 128.80 C 214.24 130.26 215.49 131.90 217.21 133.00 C 220.54 134.55 224.13 132.74 226.99 131.01 C 232.07 127.72 236.21 122.15 235.94 115.85 C 233.68 121.73 230.81 128.06 224.62 130.68 C 221.73 132.48 216.58 130.87 216.92 126.98 C 217.67 118.68 220.04 110.62 221.13 102.36 C 218.27 102.57 217.41 105.48 216.10 107.52 C 213.42 105.28 210.71 102.31 206.93 102.34 C 203.08 102.02 199.48 104.17 197.04 106.99 M 222.45 146.49 C 215.17 149.00 207.41 148.48 199.84 148.41 C 211.87 151.33 226.39 149.53 235.03 139.91 C 230.90 142.22 227.14 145.34 222.45 146.49 Z" />
<path fill="#1a2c3c" opacity="1.00" d=" M 135.46 96.52 C 144.21 96.16 153.03 96.34 161.80 96.37 C 165.05 96.59 164.86 101.45 161.84 101.82 C 153.88 102.07 145.90 101.68 137.94 102.12 C 134.68 102.85 132.30 98.33 135.46 96.52 Z" />
<path fill="#1a2c3c" opacity="1.00" d=" M 204.27 105.01 C 209.66 102.73 217.99 107.64 216.04 113.99 C 215.13 118.81 215.08 124.57 211.01 127.98 C 207.91 130.97 203.11 133.13 198.95 131.09 C 195.35 129.18 194.37 124.74 194.76 120.99 C 194.79 114.53 198.30 107.80 204.27 105.01 M 205.39 110.36 C 201.05 112.77 199.38 118.32 199.71 123.04 C 199.62 125.48 202.18 128.45 204.71 126.94 C 209.56 124.27 210.28 117.97 210.52 113.00 C 210.67 110.38 207.43 109.12 205.39 110.36 Z" />
<path fill="#1a2c3c" opacity="1.00" d=" M 135.30 109.22 C 144.14 108.89 153.03 108.75 161.88 109.00 C 165.06 109.29 164.51 114.26 161.66 114.60 C 153.51 114.72 145.35 114.50 137.20 114.61 C 134.34 114.92 132.51 110.73 135.30 109.22 Z" />
<path fill="#1a2c3c" opacity="1.00" d=" M 135.31 122.14 C 138.73 121.09 142.45 121.75 146.00 121.57 C 151.99 121.82 158.07 121.06 164.00 122.20 C 164.70 124.36 163.69 127.44 160.98 127.19 C 152.99 127.14 145.00 127.25 137.02 127.10 C 134.32 127.26 132.52 123.56 135.31 122.14 Z" />
</g>
<g id="#fcf1d5ff">
<path fill="#fcf1d5" opacity="1.00" d=" M 129.22 67.06 C 131.40 65.90 133.98 66.03 136.38 65.94 C 137.16 67.24 137.86 68.59 138.37 70.02 C 136.67 70.29 135.00 70.68 133.29 70.85 C 130.97 70.98 128.64 70.94 126.32 70.86 C 127.27 69.59 128.01 68.12 129.22 67.06 Z" />
<path fill="#fcf1d5" opacity="1.00" d=" M 135.64 80.56 C 139.48 78.71 143.91 79.78 148.00 79.71 C 163.61 79.95 179.22 79.71 194.82 79.97 C 195.30 80.60 196.25 81.88 196.73 82.51 C 180.28 87.38 169.46 105.19 171.81 122.00 C 173.11 132.72 179.11 142.86 188.21 148.76 C 200.53 157.13 217.52 156.35 230.19 149.13 C 234.84 146.62 238.01 142.27 241.33 138.31 C 241.75 137.14 242.19 135.86 241.70 134.63 C 240.30 133.54 238.75 132.68 237.22 131.79 C 241.44 123.70 242.88 113.68 239.45 105.06 C 236.89 94.67 229.22 85.85 219.15 82.13 C 224.07 78.85 230.20 79.75 235.79 79.54 C 241.96 79.24 246.21 84.48 251.33 87.05 C 250.23 87.32 249.13 87.55 248.03 87.78 C 248.58 103.18 247.89 118.59 248.07 134.00 C 248.11 138.32 248.53 142.66 248.02 146.97 C 247.45 153.29 241.02 157.62 235.01 157.67 C 215.76 157.77 196.51 157.82 177.25 157.65 C 175.97 154.25 174.67 150.82 172.70 147.74 C 170.08 143.89 168.46 139.23 164.70 136.27 C 158.58 131.50 149.88 130.93 142.85 133.93 C 137.95 135.87 133.80 139.20 129.82 142.58 C 126.88 136.80 128.02 130.21 128.00 124.00 C 127.98 113.75 127.80 103.50 127.61 93.25 C 127.35 87.85 131.25 83.21 135.64 80.56 M 135.46 96.52 C 132.30 98.33 134.68 102.85 137.94 102.12 C 145.90 101.68 153.88 102.07 161.84 101.82 C 164.86 101.45 165.05 96.59 161.80 96.37 C 153.03 96.34 144.21 96.16 135.46 96.52 M 135.30 109.22 C 132.51 110.73 134.34 114.92 137.20 114.61 C 145.35 114.50 153.51 114.72 161.66 114.60 C 164.51 114.26 165.06 109.29 161.88 109.00 C 153.03 108.75 144.14 108.89 135.30 109.22 M 135.31 122.14 C 132.52 123.56 134.32 127.26 137.02 127.10 C 145.00 127.25 152.99 127.14 160.98 127.19 C 163.69 127.44 164.70 124.36 164.00 122.20 C 158.07 121.06 151.99 121.82 146.00 121.57 C 142.45 121.75 138.73 121.09 135.31 122.14 Z" />
<path fill="#fcf1d5" opacity="1.00" d=" M 95.76 117.78 C 102.34 107.32 108.04 96.20 115.89 86.61 C 117.43 92.37 117.40 98.36 117.78 104.27 C 112.51 111.81 108.69 120.27 103.24 127.70 C 102.22 129.13 100.45 130.58 101.29 132.55 C 103.53 135.31 107.86 132.23 110.32 134.64 C 113.19 137.11 115.92 139.85 117.99 143.03 C 118.67 146.17 118.46 149.44 118.67 152.64 C 117.11 153.93 115.58 155.25 114.05 156.58 C 111.15 153.92 107.53 152.12 103.57 151.82 C 103.24 156.48 108.38 158.10 111.39 160.48 C 108.23 163.76 104.24 166.58 102.60 171.01 C 102.84 172.35 103.99 173.17 104.88 174.08 C 106.18 173.03 107.43 171.91 108.79 170.93 C 111.84 169.34 115.04 167.93 117.71 165.71 C 125.54 159.08 132.78 151.76 140.91 145.48 C 141.46 146.39 142.01 147.31 142.56 148.24 C 144.05 151.04 144.89 154.42 147.67 156.31 C 150.13 158.40 153.42 158.74 156.51 158.90 C 151.45 163.02 146.76 167.55 142.18 172.19 C 138.88 175.59 134.60 178.13 132.14 182.27 C 131.08 188.13 132.61 194.42 130.11 200.04 C 126.24 209.90 115.09 214.94 104.98 214.75 C 102.96 214.76 100.98 214.41 98.99 214.14 C 100.21 215.37 101.41 216.60 102.62 217.84 C 98.53 219.02 94.40 220.66 90.06 220.33 C 88.51 220.49 87.18 219.36 87.02 217.82 C 86.17 212.59 86.75 207.27 86.66 202.00 C 86.59 182.33 86.76 162.66 86.66 142.99 C 86.72 138.85 87.00 134.62 88.47 130.71 C 90.20 126.04 93.18 122.00 95.76 117.78 Z" />
<path fill="#fcf1d5" opacity="1.00" d=" M 205.39 110.36 C 207.43 109.12 210.67 110.38 210.52 113.00 C 210.28 117.97 209.56 124.27 204.71 126.94 C 202.18 128.45 199.62 125.48 199.71 123.04 C 199.38 118.32 201.05 112.77 205.39 110.36 Z" />
<path fill="#fcf1d5" opacity="1.00" d=" M 149.86 141.87 C 151.50 140.21 153.23 137.56 155.93 138.23 C 163.29 139.22 166.59 148.02 164.97 154.51 C 164.96 154.18 164.95 153.52 164.94 153.19 C 164.88 151.53 164.87 149.88 164.88 148.23 C 162.68 150.25 160.60 152.72 157.56 153.45 C 154.61 154.51 151.07 153.31 149.18 150.86 C 147.57 148.13 147.63 144.26 149.86 141.87 Z" />
</g>
<g id="#c8a57eff">
<path fill="#c8a57e" opacity="1.00" d=" M 251.51 86.14 C 252.68 89.98 252.49 94.03 252.47 98.00 C 252.30 111.00 252.39 124.01 252.45 137.01 C 252.41 141.28 252.92 145.63 251.93 149.82 C 249.96 156.07 243.71 161.03 237.06 160.84 C 214.00 160.70 190.94 160.91 167.89 160.79 C 170.22 156.72 171.08 152.09 172.70 147.74 C 174.67 150.82 175.97 154.25 177.25 157.65 C 196.51 157.82 215.76 157.77 235.01 157.67 C 241.02 157.62 247.45 153.29 248.02 146.97 C 248.53 142.66 248.11 138.32 248.07 134.00 C 247.89 118.59 248.58 103.18 248.03 87.78 C 249.13 87.55 250.23 87.32 251.33 87.05 L 251.51 86.14 Z" />
<path fill="#c8a57e" opacity="1.00" d=" M 117.78 104.27 L 118.24 103.58 C 118.54 107.06 119.61 111.19 117.17 114.17 C 113.87 118.38 111.49 123.20 108.41 127.56 C 107.28 129.47 104.85 127.80 103.24 127.70 C 108.69 120.27 112.51 111.81 117.78 104.27 Z" />
<path fill="#c8a57e" opacity="1.00" d=" M 114.72 127.81 C 115.84 126.09 117.11 124.49 118.40 122.89 C 118.55 126.67 118.62 130.45 118.51 134.22 C 116.95 132.40 112.66 130.63 114.72 127.81 Z" />
<path fill="#c8a57e" opacity="1.00" d=" M 164.94 153.19 C 164.95 153.52 164.96 154.18 164.97 154.51 C 162.66 159.71 156.95 162.16 153.38 166.38 C 148.17 172.18 142.12 177.13 136.71 182.70 C 135.79 189.28 137.42 196.31 134.50 202.57 C 129.75 214.07 115.56 222.56 103.46 217.17 C 103.84 216.56 104.60 215.35 104.98 214.75 C 115.09 214.94 126.24 209.90 130.11 200.04 C 132.61 194.42 131.08 188.13 132.14 182.27 C 134.60 178.13 138.88 175.59 142.18 172.19 C 146.76 167.55 151.45 163.02 156.51 158.90 C 159.57 157.39 162.43 155.50 164.94 153.19 Z" />
<path fill="#c8a57e" opacity="1.00" d=" M 169.10 166.53 C 172.66 166.61 176.24 166.58 179.79 166.28 C 177.92 168.12 174.90 169.89 175.45 172.95 C 176.01 176.66 180.21 178.61 183.48 176.90 C 185.86 176.19 188.16 175.26 190.43 174.27 C 189.11 176.57 188.04 179.26 185.66 180.70 C 182.07 182.93 177.07 181.75 174.38 178.64 C 171.20 175.38 170.06 170.84 169.10 166.53 Z" />
<path fill="#c8a57e" opacity="1.00" d=" M 152.56 175.51 C 155.30 172.33 158.80 169.92 162.09 167.34 C 164.13 172.77 166.15 178.30 169.82 182.87 C 167.58 182.41 165.34 181.80 163.04 181.88 C 158.64 182.40 155.83 188.65 158.97 192.04 C 160.93 194.44 164.44 193.91 167.08 193.17 C 168.90 192.61 170.71 191.99 172.52 191.39 C 171.18 194.28 169.34 197.44 165.95 198.15 C 160.18 198.82 154.10 195.00 152.79 189.19 C 151.96 184.74 151.08 179.91 152.56 175.51 Z" />
<path fill="#c8a57e" opacity="1.00" d=" M 142.25 184.12 C 143.59 183.32 144.93 182.50 146.28 181.70 C 146.07 189.00 149.83 196.20 147.24 203.40 C 145.34 211.24 138.12 215.62 131.99 219.96 C 129.04 222.26 125.11 221.66 121.63 221.80 C 128.54 218.38 134.87 213.51 138.55 206.58 C 142.46 199.80 142.15 191.69 142.25 184.12 Z" />
<path fill="#c8a57e" opacity="1.00" d=" M 126.39 229.27 C 130.80 227.73 135.69 228.76 140.28 228.78 C 140.37 231.52 140.39 234.26 140.18 237.00 C 134.52 237.39 128.85 237.18 123.19 237.22 C 124.27 234.58 125.04 231.80 126.39 229.27 Z" />
</g>
<g id="#528398ff">
<path fill="#528398" opacity="1.00" d=" M 258.07 95.03 C 261.46 98.58 265.26 101.77 268.28 105.66 C 269.97 107.69 269.88 110.46 269.97 112.94 C 269.89 129.30 269.81 145.67 269.99 162.03 C 270.10 166.11 269.46 170.47 266.57 173.57 C 262.68 178.56 255.87 179.27 250.00 179.31 C 235.23 179.21 220.47 179.26 205.71 178.94 C 205.95 183.29 206.57 187.65 206.19 192.00 C 205.83 195.83 202.70 198.81 199.35 200.32 C 195.11 202.12 190.53 200.45 186.46 198.99 C 186.79 202.59 187.26 206.24 186.76 209.85 C 185.68 216.20 178.11 220.43 172.12 217.99 C 167.56 216.05 163.93 212.56 159.98 209.66 C 159.95 213.61 160.50 217.67 159.44 221.54 C 157.40 226.63 152.75 230.35 147.60 232.01 C 147.63 229.38 147.78 226.68 146.99 224.14 C 144.34 222.45 141.02 222.82 138.02 222.52 C 142.44 219.56 146.79 216.27 149.82 211.83 C 152.02 208.61 153.04 204.81 154.14 201.13 C 159.53 203.73 166.31 205.39 171.57 201.57 C 176.64 198.78 177.75 192.71 178.38 187.47 C 183.41 187.34 189.17 186.82 192.35 182.35 C 196.46 178.04 196.10 171.80 195.43 166.33 C 208.62 166.54 221.82 166.47 235.01 166.35 C 241.44 166.38 248.11 164.39 252.65 159.65 C 256.81 155.61 258.24 149.64 258.29 144.02 C 258.34 127.69 257.90 111.36 258.07 95.03 Z" />
<path fill="#528398" opacity="1.00" d=" M 147.50 239.70 C 149.76 240.03 152.49 239.92 154.05 241.90 C 155.74 244.19 155.64 247.22 155.89 249.92 C 156.19 258.59 155.91 267.27 156.48 275.93 C 156.39 277.63 156.90 279.60 155.89 281.10 C 154.23 281.31 152.55 281.30 150.89 281.27 C 149.51 280.86 148.18 280.33 146.86 279.77 C 147.51 276.55 147.77 273.27 147.70 269.99 C 147.52 259.89 147.71 249.79 147.50 239.70 Z" />
<path fill="#528398" opacity="1.00" d=" M 141.31 243.07 L 142.19 243.07 C 141.65 253.38 141.55 263.72 141.80 274.04 C 141.53 276.10 143.59 277.04 144.87 278.21 C 139.37 279.12 134.37 276.31 129.30 274.71 L 129.29 273.90 C 129.14 263.99 129.28 254.08 129.31 244.17 C 133.34 244.14 137.35 243.81 141.31 243.07 Z" />
</g>
</svg>
